<svg width="176" height="32" viewBox="0 0 176 32" fill="none" xmlns="http://www.w3.org/2000/svg">
<path fill-rule="evenodd" clip-rule="evenodd" d="M23.9993 5.33332H7.99935C6.52659 5.33332 5.33268 6.52723 5.33268 7.99999V24C5.33268 25.4728 6.52659 26.6667 7.99935 26.6667H23.9993C25.4721 26.6667 26.666 25.4728 26.666 24V7.99999C26.666 6.52723 25.4721 5.33332 23.9993 5.33332ZM7.99935 2.66666C5.05383 2.66666 2.66602 5.05447 2.66602 7.99999V24C2.66602 26.9455 5.05383 29.3333 7.99935 29.3333H23.9993C26.9448 29.3333 29.3327 26.9455 29.3327 24V7.99999C29.3327 5.05447 26.9448 2.66666 23.9993 2.66666H7.99935Z" fill="white"/>
<path fill-rule="evenodd" clip-rule="evenodd" d="M15.8896 13.3333C15.8896 11.1242 17.6804 9.33334 19.8896 9.33334H22.6673V12H19.8896C19.1532 12 18.5563 12.597 18.5563 13.3333V16H22.6673V18.6667H18.5563V26.6667H15.8896V18.6667H13.334V16H15.8896V13.3333Z" fill="white"/>
<path fill-rule="evenodd" clip-rule="evenodd" d="M55.0728 5.16406L55.9372 6.77768C57.9804 10.5916 60.8974 11.7617 62.7143 11.9922V11.3094C62.7143 8.00885 65.3899 5.33322 68.6904 5.33322C71.991 5.33322 74.6667 8.00885 74.6667 11.3094V13.3332C74.6667 22.1716 68.4007 27.9999 61.1905 27.9999C58.0218 27.9999 55.7835 26.9661 54.3254 25.8861C53.6032 25.3511 53.0814 24.8119 52.7343 24.3965C52.5606 24.1887 52.4297 24.0108 52.3385 23.8783C52.2929 23.8121 52.257 23.7571 52.2307 23.7152C52.2175 23.6943 52.2066 23.6765 52.1981 23.6624L52.187 23.6437L52.1827 23.6365L52.1808 23.6333L52.18 23.6319C52.18 23.6319 52.1792 23.6305 53.3333 22.9628L52.1792 23.6305L51.0215 21.6295H53.3333C54.8053 21.6295 55.6718 21.6239 56.5235 21.4007C57.3356 21.1877 58.2225 20.7477 59.5711 19.6988L61.2083 21.8037C59.6998 22.9769 58.4871 23.6427 57.1995 23.9801C56.9638 24.0419 56.7287 24.0916 56.4929 24.1316C57.5459 24.7667 59.072 25.3332 61.1905 25.3332C66.8374 25.3332 72 20.7911 72 13.3332V11.3094C72 9.48161 70.5183 7.99989 68.6904 7.99989C66.8627 7.99989 65.381 9.48161 65.381 11.3094V14.5049L64.219 14.6555C62.0966 14.9307 57.9052 14.1324 54.7913 9.94349C54.6776 10.3694 54.6495 10.81 54.7084 11.2484C54.8467 12.2784 55.4888 13.4493 56.9487 14.4587L55.4322 16.6521C53.4636 15.2912 52.32 13.4992 52.0654 11.6033C51.8112 9.71017 52.4671 7.86621 53.8021 6.48178L55.0728 5.16406Z" fill="white"/>
<path fill-rule="evenodd" clip-rule="evenodd" d="M55.2807 17.1733C56.0515 17.0627 56.7424 16.648 57.0661 16.4128L58.6335 18.5701C58.149 18.9221 57.0443 19.6141 55.6596 19.8129C54.1821 20.0251 52.4544 19.6559 51.002 17.9747L53.0199 16.2313C53.8152 17.1519 54.6028 17.2707 55.2807 17.1733Z" fill="white"/>
<path fill-rule="evenodd" clip-rule="evenodd" d="M74.381 7.31089C74.5369 7.12165 74.6498 6.82651 74.648 6.32279L77.3146 6.31293C77.318 7.20825 77.1158 8.18482 76.4396 9.00603C75.7612 9.83002 74.7546 10.3165 73.5136 10.5295L73.0625 7.90127C73.8848 7.76014 74.2276 7.49738 74.381 7.31089Z" fill="white"/>
<path d="M124.927 10.6397C124.865 9.2554 124.641 8.30825 124.324 7.48078C123.991 6.6273 123.549 5.89872 122.826 5.18054C122.103 4.46237 121.38 4.00961 120.527 3.68175C119.7 3.35909 118.754 3.14051 117.37 3.07806C115.981 3.01561 115.539 3 112.013 3C108.482 3 108.039 3.01561 106.656 3.07806C105.272 3.14051 104.326 3.36429 103.499 3.68175C102.641 4.01481 101.913 4.45717 101.195 5.18054C100.477 5.90392 100.025 6.6273 99.697 7.48078C99.3797 8.30825 99.1561 9.2554 99.0936 10.6397C99.0312 12.0292 99.0156 12.4716 99.0156 16C99.0156 19.5336 99.0312 19.976 99.0936 21.3603C99.1561 22.7446 99.3797 23.6918 99.697 24.5192C100.03 25.3727 100.472 26.1013 101.195 26.8195C101.913 27.5428 102.641 27.9904 103.494 28.3183C104.321 28.6409 105.267 28.8595 106.651 28.9219C108.039 28.9844 108.482 29 112.008 29C115.539 29 115.981 28.9844 117.365 28.9219C118.748 28.8595 119.695 28.6357 120.522 28.3183C121.375 27.9852 122.103 27.5428 122.821 26.8195C123.539 26.0961 123.991 25.3727 124.319 24.5192C124.641 23.6918 124.86 22.7446 124.922 21.3603C124.984 19.9708 125 19.5284 125 16C125 12.4716 124.99 12.024 124.927 10.6397ZM122.592 21.2562C122.535 22.526 122.321 23.2182 122.145 23.6709C121.911 24.2746 121.625 24.7118 121.167 25.1697C120.709 25.6277 120.277 25.9035 119.669 26.1481C119.211 26.3251 118.52 26.5384 117.256 26.5957C115.888 26.6581 115.477 26.6737 112.003 26.6737C108.528 26.6737 108.117 26.6581 106.75 26.5957C105.481 26.5384 104.789 26.3251 104.336 26.1481C103.733 25.9139 103.296 25.6277 102.838 25.1697C102.381 24.7118 102.105 24.2798 101.861 23.6709C101.684 23.213 101.471 22.5208 101.413 21.2562C101.351 19.8875 101.335 19.4764 101.335 16C101.335 12.5236 101.351 12.1125 101.413 10.7438C101.471 9.47398 101.684 8.78183 101.861 8.32906C102.095 7.72538 102.381 7.28823 102.838 6.83026C103.296 6.3723 103.728 6.09648 104.336 5.85188C104.794 5.67494 105.486 5.46157 106.75 5.40432C108.117 5.34187 108.528 5.32626 112.003 5.32626C115.477 5.32626 115.888 5.34187 117.256 5.40432C118.525 5.46157 119.216 5.67494 119.669 5.85188C120.272 6.08607 120.709 6.3723 121.167 6.83026C121.625 7.28823 121.9 7.72018 122.145 8.32906C122.321 8.78703 122.535 9.47918 122.592 10.7438C122.654 12.1125 122.67 12.5236 122.67 16C122.67 19.4764 122.649 19.8875 122.592 21.2562Z" fill="white"/>
<path d="M112.002 9.31784C108.31 9.31784 105.324 12.3102 105.324 16C105.324 19.6949 108.315 22.6821 112.002 22.6821C115.69 22.6821 118.68 19.6845 118.68 16C118.68 12.305 115.695 9.31784 112.002 9.31784ZM112.002 20.3351C109.61 20.3351 107.67 18.3939 107.67 16C107.67 13.6061 109.61 11.6649 112.002 11.6649C114.395 11.6649 116.335 13.6061 116.335 16C116.335 18.3939 114.395 20.3351 112.002 20.3351Z" fill="white"/>
<path d="M118.941 10.6189C119.803 10.6189 120.501 9.9199 120.501 9.05765C120.501 8.19539 119.803 7.4964 118.941 7.4964C118.079 7.4964 117.381 8.19539 117.381 9.05765C117.381 9.9199 118.079 10.6189 118.941 10.6189Z" fill="white"/>
<path d="M99 16C99 19.5336 99.0156 19.976 99.078 21.3603C99.1404 22.7446 99.3641 23.6918 99.6813 24.5192C100.014 25.3727 100.456 26.1013 101.179 26.8195C101.897 27.5376 102.625 27.9904 103.478 28.3183C104.305 28.6409 105.252 28.8595 106.635 28.9219C108.024 28.9844 108.466 29 111.992 29C115.524 29 115.966 28.9844 117.349 28.9219C118.733 28.8595 119.679 28.6357 120.506 28.3183C121.359 27.9852 122.087 27.5428 122.805 26.8195C123.523 26.1013 123.975 25.3727 124.303 24.5192C124.626 23.6918 124.844 22.7446 124.906 21.3603C124.969 19.9708 124.984 19.5284 124.984 16C124.984 12.4664 124.969 12.024 124.906 10.6397C124.844 9.2554 124.62 8.30825 124.303 7.48078C123.97 6.6273 123.528 5.89872 122.805 5.18054C122.093 4.45717 121.364 4.00961 120.512 3.68175C119.685 3.35909 118.738 3.14051 117.354 3.07806C115.966 3.01561 115.524 3 111.997 3C108.466 3 108.024 3.01561 106.64 3.07806C105.257 3.14051 104.31 3.36429 103.483 3.68175C102.63 4.01481 101.902 4.45717 101.184 5.18054C100.467 5.90392 100.014 6.6273 99.6865 7.48078C99.3641 8.30825 99.1404 9.2554 99.078 10.6397C99.0156 12.024 99 12.4664 99 16ZM101.346 16C101.346 12.5288 101.361 12.1125 101.424 10.7438C101.481 9.47398 101.694 8.78183 101.871 8.32906C102.105 7.72538 102.391 7.28823 102.849 6.83026C103.306 6.3723 103.738 6.09648 104.347 5.85188C104.804 5.67494 105.496 5.46157 106.76 5.40432C108.128 5.34187 108.539 5.32626 112.013 5.32626C115.487 5.32626 115.898 5.34187 117.266 5.40432C118.535 5.46157 119.227 5.67494 119.679 5.85188C120.283 6.08607 120.72 6.3723 121.177 6.83026C121.635 7.28823 121.911 7.72018 122.155 8.32906C122.332 8.78703 122.545 9.47918 122.602 10.7438C122.665 12.1125 122.68 12.5236 122.68 16C122.68 19.4764 122.665 19.8875 122.602 21.2562C122.545 22.526 122.332 23.2182 122.155 23.6709C121.921 24.2746 121.635 24.7118 121.177 25.1697C120.72 25.6277 120.288 25.9035 119.679 26.1481C119.222 26.3251 118.53 26.5384 117.266 26.5957C115.898 26.6581 115.487 26.6737 112.013 26.6737C108.539 26.6737 108.128 26.6581 106.76 26.5957C105.491 26.5384 104.799 26.3251 104.347 26.1481C103.743 25.9139 103.306 25.6277 102.849 25.1697C102.391 24.7118 102.115 24.2798 101.871 23.6709C101.694 23.213 101.481 22.5208 101.424 21.2562C101.356 19.8875 101.346 19.4712 101.346 16Z" fill="white"/>
<path fill-rule="evenodd" clip-rule="evenodd" d="M157.333 12.7098V19.2901L162.816 16L157.333 12.7098ZM154.666 21.6451C154.666 22.6815 155.797 23.3216 156.685 22.7884L166.094 17.1433C166.957 16.6255 166.957 15.3745 166.094 14.8567L156.685 9.2116C155.797 8.67838 154.666 9.31854 154.666 10.3549V21.6451Z" fill="white"/>
<path fill-rule="evenodd" clip-rule="evenodd" d="M170.666 23.3705V8.62951C170.666 7.57406 170.096 6.91511 169.471 6.72324C167.323 6.06419 164.029 5.33332 159.999 5.33332C155.97 5.33332 152.676 6.06419 150.528 6.72324C149.902 6.91511 149.333 7.57406 149.333 8.62951V23.3705C149.333 24.4259 149.902 25.0849 150.528 25.2768C152.676 25.9357 155.97 26.6667 159.999 26.6667C164.029 26.6667 167.323 25.9357 169.471 25.2768C170.096 25.0849 170.666 24.4259 170.666 23.3705ZM149.746 4.17386C147.814 4.76636 146.666 6.60939 146.666 8.62951V23.3705C146.666 25.3907 147.814 27.2336 149.746 27.8261C152.09 28.5453 155.651 29.3333 159.999 29.3333C164.348 29.3333 167.909 28.5453 170.253 27.8261C172.184 27.2336 173.333 25.3907 173.333 23.3705V8.62951C173.333 6.60939 172.184 4.76636 170.253 4.17386C167.909 3.45459 164.348 2.66666 159.999 2.66666C155.651 2.66666 152.09 3.45459 149.746 4.17386Z" fill="white"/>
</svg>
