<svg width="24" height="25" viewBox="0 0 24 25" fill="none" xmlns="http://www.w3.org/2000/svg">
<path d="M15.5 20.25H8.5C5.76 20.25 4.25 18.74 4.25 16V9C4.25 6.26 5.76 4.75 8.5 4.75H15.5C18.24 4.75 19.75 6.26 19.75 9V16C19.75 18.74 18.24 20.25 15.5 20.25ZM8.5 6.25C6.57 6.25 5.75 7.07 5.75 9V16C5.75 17.93 6.57 18.75 8.5 18.75H15.5C17.43 18.75 18.25 17.93 18.25 16V9C18.25 7.07 17.43 6.25 15.5 6.25H8.5Z" fill="#505050"/>
<path d="M16 3.25H8C7.59 3.25 7.25 2.91 7.25 2.5C7.25 2.09 7.59 1.75 8 1.75H16C16.41 1.75 16.75 2.09 16.75 2.5C16.75 2.91 16.41 3.25 16 3.25Z" fill="#505050"/>
<path d="M16 23.25H8C7.59 23.25 7.25 22.91 7.25 22.5C7.25 22.09 7.59 21.75 8 21.75H16C16.41 21.75 16.75 22.09 16.75 22.5C16.75 22.91 16.41 23.25 16 23.25Z" fill="#505050"/>
<path d="M14.5 13.75H11.5C11.09 13.75 10.75 13.41 10.75 13V10C10.75 9.59 11.09 9.25 11.5 9.25C11.91 9.25 12.25 9.59 12.25 10V12.25H14.5C14.91 12.25 15.25 12.59 15.25 13C15.25 13.41 14.91 13.75 14.5 13.75Z" fill="#505050"/>
</svg>
