<svg width="16" height="17" viewBox="0 0 16 17" fill="none" xmlns="http://www.w3.org/2000/svg">
<path d="M10.0003 15.6666H6.00033C3.06033 15.6666 2.16699 14.7733 2.16699 11.8333V5.16659C2.16699 2.22659 3.06033 1.33325 6.00033 1.33325H10.0003C12.9403 1.33325 13.8337 2.22659 13.8337 5.16659V11.8333C13.8337 14.7733 12.9403 15.6666 10.0003 15.6666ZM6.00033 2.33325C3.61366 2.33325 3.16699 2.78659 3.16699 5.16659V11.8333C3.16699 14.2133 3.61366 14.6666 6.00033 14.6666H10.0003C12.387 14.6666 12.8337 14.2133 12.8337 11.8333V5.16659C12.8337 2.78659 12.387 2.33325 10.0003 2.33325H6.00033Z" fill="#505050"/>
<path d="M9.33366 4.66675H6.66699C6.39366 4.66675 6.16699 4.44008 6.16699 4.16675C6.16699 3.89341 6.39366 3.66675 6.66699 3.66675H9.33366C9.60699 3.66675 9.83366 3.89341 9.83366 4.16675C9.83366 4.44008 9.60699 4.66675 9.33366 4.66675Z" fill="#505050"/>
<path d="M8.00013 13.74C7.15346 13.74 6.4668 13.0533 6.4668 12.2067C6.4668 11.36 7.15346 10.6733 8.00013 10.6733C8.8468 10.6733 9.53346 11.36 9.53346 12.2067C9.53346 13.0533 8.8468 13.74 8.00013 13.74ZM8.00013 11.6667C7.7068 11.6667 7.4668 11.9067 7.4668 12.2C7.4668 12.4933 7.7068 12.7333 8.00013 12.7333C8.29346 12.7333 8.53346 12.4933 8.53346 12.2C8.53346 11.9067 8.29346 11.6667 8.00013 11.6667Z" fill="#505050"/>
</svg>
