<svg width="24" height="25" viewBox="0 0 24 25" fill="none" xmlns="http://www.w3.org/2000/svg">
<path d="M6.51996 16.7599C6.32996 16.7599 6.13996 16.6899 5.98996 16.5399C5.69996 16.2499 5.69996 15.7699 5.98996 15.4799L9.03996 12.4299C9.32996 12.1399 9.80996 12.1399 10.1 12.4299C10.39 12.7199 10.39 13.1999 10.1 13.4899L7.04996 16.5399C6.89996 16.6799 6.70996 16.7599 6.51996 16.7599Z" fill="#505050"/>
<path d="M9.60023 16.7899C9.41023 16.7899 9.22023 16.7199 9.07023 16.5699L6.02023 13.5199C5.73023 13.2299 5.73023 12.7499 6.02023 12.4599C6.31023 12.1699 6.79023 12.1699 7.08023 12.4599L10.1302 15.5099C10.4202 15.7999 10.4202 16.2799 10.1302 16.5699C9.98023 16.7199 9.79023 16.7899 9.60023 16.7899Z" fill="#505050"/>
<path d="M13.5403 15.5C12.9903 15.5 12.5303 15.05 12.5303 14.5C12.5303 13.95 12.9703 13.5 13.5203 13.5H13.5403C14.0903 13.5 14.5403 13.95 14.5403 14.5C14.5403 15.05 14.1003 15.5 13.5403 15.5Z" fill="#505050"/>
<path d="M17.4797 15.5C16.9297 15.5 16.4697 15.05 16.4697 14.5C16.4697 13.95 16.9097 13.5 17.4597 13.5H17.4797C18.0297 13.5 18.4797 13.95 18.4797 14.5C18.4797 15.05 18.0297 15.5 17.4797 15.5Z" fill="#505050"/>
<path d="M15.5 17.47C14.95 17.47 14.5 17.03 14.5 16.48V16.46C14.5 15.91 14.95 15.46 15.5 15.46C16.05 15.46 16.5 15.91 16.5 16.46C16.5 17.01 16.06 17.47 15.5 17.47Z" fill="#505050"/>
<path d="M15.5 13.53C14.95 13.53 14.5 13.09 14.5 12.54V12.52C14.5 11.97 14.95 11.52 15.5 11.52C16.05 11.52 16.5 11.97 16.5 12.52C16.5 13.07 16.06 13.53 15.5 13.53Z" fill="#505050"/>
<path d="M15 23.25H9C3.57 23.25 1.25 20.93 1.25 15.5V13.5C1.25 8.07 3.57 5.75 9 5.75H15C20.43 5.75 22.75 8.07 22.75 13.5V15.5C22.75 20.93 20.43 23.25 15 23.25ZM9 7.25C4.39 7.25 2.75 8.89 2.75 13.5V15.5C2.75 20.11 4.39 21.75 9 21.75H15C19.61 21.75 21.25 20.11 21.25 15.5V13.5C21.25 8.89 19.61 7.25 15 7.25H9Z" fill="#505050"/>
<path d="M12.9902 7.25H11.9902C11.0302 7.25 10.2402 6.46 10.2402 5.5C10.2402 4.54 11.0202 3.75 11.9802 3.75C12.1402 3.75 12.2502 3.64 12.2602 3.5L12.2702 2.49C12.2802 2.08 12.6102 1.75 13.0202 1.75H13.0302C13.4402 1.76 13.7802 2.1 13.7702 2.51L13.7602 3.52C13.7502 4.47 12.9602 5.25 12.0102 5.25C11.8502 5.25 11.7502 5.36 11.7502 5.5C11.7502 5.64 11.8602 5.75 12.0002 5.75H13.0002C13.4102 5.75 13.7502 6.09 13.7502 6.5C13.7502 6.91 13.4002 7.25 12.9902 7.25Z" fill="#505050"/>
</svg>
