<svg width="24" height="25" viewBox="0 0 24 25" fill="none" xmlns="http://www.w3.org/2000/svg">
<path d="M11.9998 19.9201C10.4598 19.9201 8.9198 19.3301 7.7498 18.1601C5.3998 15.8101 5.3998 12.0001 7.7498 9.65015C8.8898 8.51015 10.3998 7.89014 11.9998 7.89014C13.5998 7.89014 15.1198 8.52015 16.2498 9.65015C18.5998 12.0001 18.5998 15.8101 16.2498 18.1601C15.0798 19.3301 13.5398 19.9201 11.9998 19.9201ZM11.9998 9.40015C10.7998 9.40015 9.6598 9.87009 8.8098 10.7201C7.0498 12.4801 7.0498 15.3401 8.8098 17.1001C10.5698 18.8601 13.4298 18.8501 15.1898 17.1001C16.9498 15.3401 16.9498 12.4801 15.1898 10.7201C14.3398 9.87009 13.1998 9.40015 11.9998 9.40015Z" fill="#505050"/>
<path d="M10.4096 16.2498C10.2196 16.2498 10.0196 16.1799 9.87961 16.0299C9.58961 15.7399 9.58961 15.2599 9.87961 14.9599L11.4696 13.3698C11.7596 13.0798 12.2396 13.0798 12.5396 13.3698C12.8296 13.6598 12.8296 14.1399 12.5396 14.4399L10.9496 16.0299C10.7896 16.1799 10.5996 16.2498 10.4096 16.2498Z" fill="#505050"/>
<path d="M18.79 8.01001C18.55 8.01001 18.33 7.92 18.16 7.75C17.81 7.4 17.81 6.82999 18.16 6.48999C18.33 6.31999 18.55 6.22998 18.79 6.22998C19.03 6.22998 19.25 6.31999 19.42 6.48999C19.59 6.65999 19.6799 6.88 19.6799 7.12C19.6799 7.36 19.59 7.58 19.42 7.75C19.26 7.92 19.03 8.01001 18.79 8.01001ZM18.72 7.03998V7.19C18.74 7.21 18.7699 7.21997 18.7999 7.21997C18.9199 7.14997 18.92 7.07998 18.87 7.03998H18.72Z" fill="#505050"/>
<path d="M18.7904 8.26001C18.4804 8.26001 18.2004 8.13998 17.9804 7.91998C17.5404 7.47998 17.5404 6.74999 17.9804 6.29999C18.2004 6.07999 18.4804 5.96997 18.7904 5.96997C19.1004 5.96997 19.3804 6.09 19.6004 6.31C19.8204 6.53 19.9304 6.81 19.9304 7.12C19.9304 7.43 19.8104 7.70999 19.5904 7.92999C19.3904 8.13999 19.1004 8.26001 18.7904 8.26001ZM18.5404 7.37C18.6104 7.44 18.7004 7.46997 18.7904 7.46997C18.8804 7.46997 18.9704 7.43 19.0404 7.37C19.1804 7.23 19.1804 7.01 19.0404 6.87C18.9104 6.74 18.6704 6.74 18.5404 6.87C18.4804 6.93 18.4404 7.02 18.4404 7.12C18.4404 7.21 18.4704 7.3 18.5404 7.37Z" fill="#505050"/>
<path d="M5.2103 21.5901C4.9803 21.5901 4.75029 21.5001 4.58029 21.3301C4.41029 21.1601 4.32031 20.9301 4.32031 20.7001C4.32031 20.4601 4.41029 20.2401 4.58029 20.0701C4.75029 19.9001 4.9703 19.8101 5.2103 19.8101C5.4503 19.8101 5.6703 19.9001 5.8403 20.0701C6.1903 20.4201 6.1903 20.9901 5.8403 21.3301C5.6703 21.5001 5.4403 21.5901 5.2103 21.5901ZM5.19031 20.6C5.17031 20.6 5.15031 20.6101 5.13031 20.6301C5.09031 20.6701 5.09031 20.7401 5.13031 20.7801C5.15031 20.8001 5.18032 20.8101 5.20032 20.8101L5.30029 20.7101C5.27029 20.6201 5.23031 20.6 5.19031 20.6Z" fill="#505050"/>
<path d="M5.21054 21.8401C4.92054 21.8401 4.62054 21.7301 4.40054 21.5101C4.18054 21.2901 4.06055 21.0001 4.06055 20.7001C4.06055 20.3901 4.18054 20.1101 4.40054 19.8901C4.61054 19.6801 4.90054 19.5601 5.21054 19.5601C5.52054 19.5601 5.80054 19.6801 6.02054 19.9001C6.47054 20.3501 6.47054 21.0701 6.02054 21.5201C5.80054 21.7301 5.50054 21.8401 5.21054 21.8401ZM5.21054 20.3401C5.12054 20.3401 5.03054 20.3701 4.96054 20.4401C4.82054 20.5801 4.82054 20.8001 4.96054 20.9401C5.03054 21.0101 5.12054 21.04 5.21054 21.04C5.30054 21.04 5.40054 21.0001 5.46054 20.9301C5.52054 20.8701 5.56055 20.7801 5.56055 20.6801C5.56055 20.5901 5.52054 20.4901 5.46054 20.4301C5.39054 20.3801 5.30054 20.3401 5.21054 20.3401Z" fill="#505050"/>
<path d="M21.5995 14.8C21.3695 14.8 21.1395 14.71 20.9695 14.54C20.6195 14.19 20.6195 13.62 20.9695 13.27C21.1395 13.1 21.3695 13.06 21.5995 13.01C21.8395 13.01 22.0595 13.1 22.2295 13.27C22.5795 13.62 22.5795 14.19 22.2295 14.54C22.0595 14.71 21.8295 14.8 21.5995 14.8ZM21.5295 13.98C21.5495 14 21.5795 14.01 21.6095 14.01C21.7195 13.94 21.7195 13.87 21.6795 13.83C21.6395 13.79 21.5695 13.79 21.5295 13.83C21.4895 13.87 21.4895 13.94 21.5295 13.98Z" fill="#505050"/>
<path d="M21.6006 15.05C21.3106 15.05 21.0106 14.94 20.7906 14.72C20.3406 14.27 20.3406 13.55 20.7906 13.1C21.0106 12.88 21.2906 12.76 21.6006 12.76C21.9106 12.76 22.1906 12.88 22.4106 13.1C22.8606 13.55 22.8606 14.27 22.4106 14.72C22.1906 14.94 21.9006 15.05 21.6006 15.05ZM21.3506 14.16C21.4206 14.23 21.5106 14.26 21.6006 14.26C21.6906 14.26 21.7806 14.22 21.8506 14.16C21.9906 14.02 21.9906 13.8 21.8506 13.66C21.7106 13.52 21.4906 13.52 21.3506 13.66C21.2206 13.79 21.2106 14.02 21.3506 14.16Z" fill="#505050"/>
<path d="M2.40032 14.8C2.17032 14.8 1.94031 14.71 1.77031 14.54C1.42031 14.19 1.42031 13.6201 1.77031 13.2701C2.12031 12.9201 2.69033 12.9201 3.04033 13.2701C3.39033 13.6201 3.39033 14.19 3.04033 14.54C2.85033 14.71 2.62032 14.8 2.40032 14.8ZM2.32033 13.98C2.36033 14.02 2.43032 14.02 2.47032 13.98C2.51032 13.94 2.51032 13.8701 2.47032 13.8301C2.43032 13.7901 2.36033 13.7901 2.32033 13.8301C2.28033 13.8701 2.28033 13.94 2.32033 13.98Z" fill="#505050"/>
<path d="M2.39945 15.0499C2.10945 15.0499 1.80945 14.9399 1.58945 14.7199C1.13945 14.2699 1.13945 13.5499 1.58945 13.0999C2.03945 12.6499 2.76945 12.6599 3.20945 13.0999C3.65945 13.5499 3.65945 14.2699 3.20945 14.7199C2.97945 14.9399 2.68945 15.0499 2.39945 15.0499ZM2.13947 14.1599C2.27947 14.2999 2.49947 14.2999 2.63947 14.1599C2.77947 14.0199 2.77947 13.7899 2.63947 13.6599C2.49947 13.5199 2.27947 13.5199 2.13947 13.6599C2.00947 13.7899 2.00947 14.0199 2.13947 14.1599Z" fill="#505050"/>
<path d="M18.79 21.5899C18.56 21.5899 18.33 21.4999 18.16 21.3299C17.81 20.9799 17.81 20.4099 18.16 20.0599C18.51 19.7099 19.08 19.7099 19.4299 20.0599C19.6 20.2299 19.69 20.4499 19.69 20.6899C19.69 20.9299 19.6 21.1499 19.4299 21.3199C19.2499 21.4999 19.02 21.5899 18.79 21.5899ZM18.79 20.5899C18.76 20.5899 18.74 20.5999 18.72 20.6199V20.7699C18.76 20.8099 18.83 20.8099 18.87 20.7699C18.91 20.7299 18.91 20.6599 18.87 20.6199C18.84 20.5999 18.82 20.5899 18.79 20.5899Z" fill="#505050"/>
<path d="M18.7901 21.84C18.5001 21.84 18.2001 21.73 17.9801 21.51C17.5301 21.06 17.5301 20.34 17.9801 19.89C18.4301 19.44 19.1501 19.44 19.6001 19.89C19.8201 20.11 19.9401 20.39 19.9401 20.7C19.9401 21.01 19.8201 21.29 19.6001 21.51C19.3801 21.73 19.0801 21.84 18.7901 21.84ZM18.5401 20.95C18.6801 21.09 18.9001 21.09 19.0401 20.95C19.1801 20.81 19.1801 20.59 19.0401 20.45C18.9001 20.31 18.6801 20.31 18.5401 20.45C18.4701 20.52 18.4401 20.61 18.4401 20.7C18.4401 20.79 18.4701 20.88 18.5401 20.95Z" fill="#505050"/>
<path d="M5.2103 8.01001C4.9703 8.01001 4.75029 7.92 4.58029 7.75C4.41029 7.58 4.32031 7.36 4.32031 7.12C4.32031 6.88 4.41029 6.65999 4.58029 6.48999C4.75029 6.31999 4.9703 6.22998 5.2103 6.22998C5.4503 6.22998 5.6703 6.31999 5.8403 6.48999C6.1903 6.83999 6.1903 7.41001 5.8403 7.76001C5.6703 7.92001 5.4503 8.01001 5.2103 8.01001ZM5.13031 7.19C5.15031 7.21 5.18032 7.21997 5.20032 7.21997L5.30029 7.12L5.20032 7.02002C5.09032 7.08002 5.09031 7.15 5.13031 7.19Z" fill="#505050"/>
<path d="M5.2103 8.26001C4.9003 8.26001 4.6203 8.13998 4.4003 7.91998C4.1903 7.70998 4.07031 7.41999 4.07031 7.10999C4.07031 6.79999 4.19031 6.51999 4.41031 6.29999C4.62031 6.08999 4.91031 5.96997 5.22031 5.96997C5.53031 5.96997 5.8103 6.09 6.0303 6.31C6.4703 6.76 6.4703 7.47999 6.0303 7.92999C5.8003 8.13999 5.5203 8.26001 5.2103 8.26001ZM4.9603 7.37C5.0303 7.44 5.1203 7.47998 5.2103 7.47998C5.3003 7.47998 5.3903 7.44 5.4603 7.38C5.5303 7.32 5.5603 7.22 5.5603 7.13C5.5603 7.04 5.52032 6.94 5.45032 6.88C5.33032 6.75 5.08032 6.75 4.95032 6.88C4.82032 7 4.8203 7.23 4.9603 7.37Z" fill="#505050"/>
<path d="M11.9994 5.2C11.7594 5.2 11.5394 5.10999 11.3694 4.93999C11.1994 4.76999 11.1094 4.54999 11.1094 4.30999C11.1094 4.06999 11.1994 3.84998 11.3694 3.67998C11.7194 3.32998 12.2894 3.32998 12.6394 3.67998C12.9894 4.02998 12.9894 4.59999 12.6394 4.93999C12.4694 5.09999 12.2394 5.2 11.9994 5.2ZM12.0694 4.22997L11.9194 4.37999C11.9594 4.41999 12.0294 4.41999 12.0694 4.37999V4.22997ZM11.9294 4.22997C11.8894 4.26997 11.8894 4.33999 11.9294 4.37999L12.0794 4.22997H11.9294Z" fill="#505050"/>
<path d="M11.9994 5.44987C11.6894 5.44987 11.4094 5.32984 11.1894 5.10984C10.9794 4.89984 10.8594 4.60984 10.8594 4.29984C10.8594 3.98984 10.9794 3.70984 11.1994 3.48984C11.6494 3.03984 12.3694 3.03984 12.8194 3.48984C13.2594 3.93984 13.2594 4.65984 12.8194 5.10984C12.5994 5.32984 12.3094 5.44987 11.9994 5.44987ZM12.2494 4.04984L11.7494 4.54984C11.8894 4.68984 12.1094 4.68984 12.2494 4.54984C12.3194 4.47984 12.3494 4.38984 12.3494 4.29984C12.3494 4.20984 12.3194 4.11984 12.2494 4.04984ZM11.9994 3.94987C11.9094 3.94987 11.8094 3.98985 11.7494 4.05985C11.6094 4.19985 11.6094 4.41985 11.7494 4.55985L12.2494 4.05985C12.1894 3.98985 12.0994 3.94987 11.9994 3.94987Z" fill="#505050"/>
</svg>
