<svg width="24" height="25" viewBox="0 0 24 25" fill="none" xmlns="http://www.w3.org/2000/svg">
<path d="M5.56971 23.2001C3.22971 23.2001 1.24971 21.22 1.24971 18.88V12.72C1.19971 9.80005 2.27971 7.05005 4.29971 4.99005C6.31971 2.94005 9.02971 1.80005 11.9497 1.80005C17.9097 1.80005 22.7497 6.65005 22.7497 12.6V18.76C22.7497 21.14 20.8097 23.08 18.4297 23.08C16.0897 23.08 14.1097 21.1 14.1097 18.76V15.95C14.1097 14.5 15.2497 13.36 16.6997 13.36C18.1497 13.36 19.2897 14.5 19.2897 15.95V18.98C19.2897 19.39 18.9497 19.73 18.5397 19.73C18.1297 19.73 17.7897 19.39 17.7897 18.98V15.95C17.7897 15.27 17.2397 14.86 16.6997 14.86C16.0197 14.86 15.6097 15.41 15.6097 15.95V18.76C15.6097 20.29 16.8997 21.58 18.4297 21.58C19.9597 21.58 21.2497 20.29 21.2497 18.76V12.6C21.2497 7.47005 17.0797 3.30005 11.9497 3.30005C9.43971 3.30005 7.10971 4.27005 5.36971 6.04005C3.62971 7.81005 2.69971 10.18 2.74971 12.7V18.88C2.74971 20.41 4.03971 21.7001 5.56971 21.7001C7.09971 21.7001 8.38971 20.41 8.38971 18.88V16.07C8.38971 15.39 7.83971 14.98 7.29971 14.98C6.61971 14.98 6.20971 15.53 6.20971 16.07V18.99C6.20971 19.4 5.86971 19.74 5.45971 19.74C5.04971 19.74 4.70971 19.4 4.70971 18.99V16.07C4.70971 14.62 5.84971 13.48 7.29971 13.48C8.74971 13.48 9.88971 14.62 9.88971 16.07V18.88C9.88971 21.22 7.90971 23.2001 5.56971 23.2001Z" fill="#505050"/>
</svg>
