<svg width="24" height="25" viewBox="0 0 24 25" fill="none" xmlns="http://www.w3.org/2000/svg">
<path d="M1.25 15.5V9.5C1.25 5.09 2.59 3.75 7 3.75L17 3.75C21.41 3.75 22.75 5.09 22.75 9.5V15.5C22.75 19.91 21.41 21.25 17 21.25H7C2.59 21.25 1.25 19.91 1.25 15.5ZM21.25 9.5C21.25 5.92 20.57 5.25 17 5.25L7 5.25C3.43 5.25 2.75 5.92 2.75 9.5V15.5C2.75 19.08 3.43 19.75 7 19.75H17C20.57 19.75 21.25 19.08 21.25 15.5V9.5Z" fill="#505050"/>
<path d="M4.14023 12.5C4.14023 11.23 5.17024 10.2 6.44024 10.2C7.71024 10.2 8.74023 11.23 8.74023 12.5C8.74023 13.77 7.71024 14.8 6.44024 14.8C5.17024 14.8 4.14023 13.77 4.14023 12.5ZM7.25023 12.5C7.25023 12.06 6.89024 11.7 6.45024 11.7C6.01024 11.7 5.65023 12.06 5.65023 12.5C5.65023 12.94 6.01024 13.3 6.45024 13.3C6.89024 13.3 7.25023 12.94 7.25023 12.5Z" fill="#505050"/>
</svg>
